<svg width="1441" height="881" viewBox="0 0 1441 881" fill="none" xmlns="http://www.w3.org/2000/svg">
<path opacity="0.30385" d="M568.076 1095.45C622.105 1083.01 646.888 1060.74 655.218 1031.92C659.595 1016.77 659.392 999.932 656.64 981.967C653.888 964.002 648.576 944.842 642.681 925.043C641.401 920.744 640.094 916.415 638.779 912.06C627.965 876.249 616.64 838.745 615.792 802.331C614.843 761.581 627.023 722.244 667.898 688.32C709.158 654.076 731.66 620.654 744.499 588.364C757.33 556.095 760.485 525.011 763.132 495.538C763.237 494.369 763.341 493.203 763.445 492.039C765.965 463.822 768.347 437.163 778.624 412.157C789.303 386.173 808.539 361.915 845.516 339.697C919.745 295.096 960.738 279.126 1009.75 274.25C1034.29 271.808 1060.86 272.146 1094.67 273.099C1100.41 273.26 1106.35 273.44 1112.52 273.626C1142.73 274.538 1178.51 275.617 1222.79 275.617C1276.41 275.617 1317.66 253.025 1351.9 224.876C1369.01 210.806 1384.38 195.336 1398.66 180.6C1400.67 178.524 1402.66 176.463 1404.63 174.423C1416.66 161.966 1427.94 150.282 1438.94 140.667C1451.74 129.473 1464.05 121.173 1476.56 117.726C1489.01 114.294 1501.74 115.648 1515.47 123.932C1529.26 132.243 1544.07 147.541 1560.57 172.043C1577.06 196.535 1595.2 230.156 1615.63 275.032C1697.31 454.391 1697.33 659.632 1676.89 820.11C1666.67 900.337 1651.35 969.347 1638.58 1018.3C1632.19 1042.77 1626.44 1062.23 1622.3 1075.57C1620.22 1082.24 1618.55 1087.38 1617.39 1090.85C1616.81 1092.58 1616.36 1093.9 1616.06 1094.79C1615.97 1095.04 1615.89 1095.27 1615.83 1095.45H568.076ZM357.001 1084.81C374.614 1088.96 392.101 1092.56 409.359 1095.45H-185.907C-186.011 1095.35 -186.143 1095.23 -186.302 1095.08C-186.739 1094.67 -187.372 1094.05 -188.15 1093.23C-189.705 1091.6 -191.834 1089.16 -194.111 1085.99C-198.666 1079.63 -203.803 1070.33 -206.148 1058.54C-210.821 1035.04 -204.471 1001.27 -159.374 960.795C-148.295 950.851 -132.614 946.14 -113.028 945.528C-93.4429 944.916 -70.0634 948.406 -43.7192 954.749C4.46951 966.352 62.3703 987.446 124.778 1010.18C130.613 1012.31 136.486 1014.45 142.395 1016.6C211.478 1041.71 285.326 1067.89 357.001 1084.81ZM436.988 1097.45H547.17C512.785 1102.79 475.654 1102.19 436.988 1097.45Z" stroke="white" stroke-width="2"/>
<path opacity="0.30385" d="M575.547 1046.53C626.755 1035.71 653.598 1018.42 666.963 996.591C680.732 974.1 680.111 946.909 677.356 917.383C676.914 912.648 676.418 907.851 675.915 903.002C673.281 877.571 670.497 850.7 674.714 823.614C679.729 791.403 694.651 758.889 731.594 728.248C768.723 697.453 785.452 664.357 791.731 630.778C798.006 597.224 793.838 563.213 789.235 530.614C788.932 528.47 788.627 526.332 788.324 524.2C784.006 493.895 779.881 464.95 784.03 438.742C788.463 410.744 802.343 385.864 835.649 365.864C902.376 325.797 964.291 325.784 1033.57 335.815C1052.31 338.528 1071.59 341.978 1091.65 345.567C1145.74 355.244 1205.5 365.936 1275.55 365.936C1323.71 365.936 1360.73 343.937 1391.46 316.068C1406.82 302.135 1420.61 286.728 1433.44 271.86C1436.24 268.609 1439 265.383 1441.72 262.205C1451.44 250.844 1460.64 240.084 1469.63 230.862C1481.14 219.058 1492.26 209.827 1503.59 205.102C1514.89 200.389 1526.42 200.151 1538.83 206.368C1551.26 212.601 1564.61 225.335 1579.46 246.647C1594.31 267.952 1610.63 297.79 1629.03 338.172C1702.59 499.591 1677.75 676.712 1634.48 813.533C1612.84 881.936 1586.61 940.246 1565.78 981.456C1555.37 1002.06 1546.31 1018.39 1539.85 1029.56C1536.63 1035.15 1534.05 1039.45 1532.28 1042.35C1531.39 1043.81 1530.71 1044.91 1530.25 1045.65C1530.02 1046.01 1529.84 1046.29 1529.73 1046.48L1529.7 1046.53H575.547ZM565.367 1047.53C470.807 1065.31 348.404 1064.06 233.479 1062.89C217.091 1062.72 200.854 1062.56 184.873 1062.45C119.842 1062.01 59.0266 1062.51 9.36769 1067.7C-15.4625 1070.29 -37.5188 1074.06 -55.9267 1079.47C-74.3296 1084.88 -89.1217 1091.94 -99.3917 1101.16C-109.578 1110.29 -117.104 1116.28 -122.48 1119.76C-125.17 1121.51 -127.3 1122.62 -128.942 1123.18C-130.605 1123.76 -131.659 1123.74 -132.284 1123.42C-132.867 1123.12 -133.236 1122.46 -133.289 1121.27C-133.342 1120.09 -133.07 1118.5 -132.501 1116.56C-131.365 1112.7 -129.095 1107.62 -126.173 1101.93C-120.335 1090.57 -111.947 1076.92 -105.014 1066.1C-101.548 1060.69 -98.448 1055.99 -96.2142 1052.65C-95.0973 1050.97 -94.1971 1049.64 -93.5762 1048.72C-93.2658 1048.27 -93.0252 1047.91 -92.8623 1047.67L-92.7628 1047.53H565.367Z" stroke="white"/>
<path opacity="0.30385" d="M1599.55 1002.76C1599.51 1002.86 1599.47 1002.95 1599.44 1003.03H669.513C685.188 995.101 695.711 985.704 702.637 975.084C715.666 955.104 715.79 931.027 714.012 905.024C713.714 900.661 713.362 896.243 713.007 891.777C711.235 869.526 709.367 846.076 713.554 822.332C718.569 793.897 732.279 765.038 765.421 737.555C831.682 682.607 913.929 691.834 995.046 705.973C1002.3 707.238 1009.55 708.542 1016.77 709.842C1049.87 715.797 1082.5 721.668 1113.36 723.298C1150.98 725.284 1186.11 720.982 1216.44 702.775C1246.85 684.514 1259.52 656.923 1264.15 625.975C1268.03 600.1 1266.3 571.772 1264.63 544.503C1264.31 539.226 1263.99 533.988 1263.71 528.815C1262 496.799 1261.97 467.358 1272.98 445.912C1278.46 435.233 1286.69 426.528 1298.87 420.48C1311.08 414.422 1327.3 411.004 1348.79 411.004C1423.22 411.004 1455.96 357.322 1479.21 319.211C1483.14 312.764 1486.8 306.762 1490.35 301.541C1496.52 292.452 1502.24 285.866 1508.3 283.154C1511.29 281.816 1514.37 281.422 1517.66 282.153C1520.98 282.888 1524.58 284.778 1528.57 288.118C1536.57 294.815 1545.94 307.18 1557.47 327.035C1568.99 346.867 1582.63 374.089 1599.19 410.419C1665.33 555.55 1665.34 703.844 1648.79 815.894C1640.52 871.914 1628.11 918.859 1617.77 951.796C1612.6 968.264 1607.95 981.228 1604.59 990.072C1602.92 994.495 1601.56 997.887 1600.63 1000.17C1600.16 1001.31 1599.8 1002.18 1599.55 1002.76ZM-92.6748 1006.65C-92.3386 1005.94 -92.0782 1005.4 -91.9014 1005.03H660.455C648.12 1010.28 632.975 1014.8 614.409 1018.47C542.786 1032.62 435.667 1043 325.032 1053.73C284.764 1057.63 244.031 1061.58 204.374 1065.77C130.093 1073.62 59.5979 1082.33 3.07777 1093.18C-25.1817 1098.61 -49.9713 1104.59 -70.0049 1111.27C-90.0125 1117.94 -105.382 1125.35 -114.71 1133.72C-119.272 1137.81 -123.159 1140.87 -126.437 1143.01C-129.727 1145.15 -132.348 1146.34 -134.387 1146.77C-136.404 1147.2 -137.743 1146.86 -138.657 1146.09C-139.611 1145.29 -140.304 1143.87 -140.643 1141.69C-141.322 1137.32 -140.477 1130.62 -138.503 1122.34C-136.538 1114.1 -133.487 1104.45 -129.855 1094.26C-122.594 1073.87 -113.039 1051.43 -105.295 1034.07C-101.424 1025.39 -98.0066 1017.99 -95.5577 1012.75C-94.3332 1010.14 -93.3508 1008.06 -92.6748 1006.65Z" stroke="white" stroke-width="2"/>
<path opacity="0.30385" d="M1599.9 1002.75C1599.82 1003.08 1599.75 1003.34 1599.7 1003.53H813.494C807.295 990.701 799.27 977.125 790.854 963.1C790.024 961.717 789.19 960.33 788.353 958.938C770.61 929.416 751.762 898.055 744.686 867.411C740.985 851.38 740.513 835.571 745.096 820.343C749.677 805.119 759.323 790.435 775.922 776.67C809.122 749.139 852.223 739.845 900.153 740.307C948.087 740.769 1000.78 750.985 1053.12 762.41C1062.2 764.391 1071.26 766.408 1080.28 768.416C1123.3 777.99 1165.46 787.372 1203.81 791.715C1250.2 796.968 1291.15 794.865 1321.38 776.714C1351.7 758.513 1359.46 728.212 1356.85 693.183C1354.49 661.568 1343.67 625.98 1333.26 591.739C1332.15 588.067 1331.04 584.41 1329.94 580.775C1324.28 561.998 1319.03 543.807 1315.7 527.077C1312.36 510.342 1310.93 495.108 1312.89 482.239C1314.84 469.386 1320.17 458.914 1330.31 451.642C1340.48 444.359 1355.54 440.238 1377.08 440.238C1420.28 440.238 1451.1 437.788 1474.41 435.672C1477 435.438 1479.5 435.207 1481.9 434.984C1501.21 433.2 1514.93 431.931 1526.58 433.116C1539.62 434.443 1550.05 438.853 1562.72 449.16C1575.42 459.488 1590.36 475.716 1612.42 500.671C1634.35 525.481 1644.57 569.282 1647.52 621.168C1650.46 673.023 1646.12 732.832 1639.02 789.542C1631.93 846.25 1622.07 899.842 1613.99 939.259C1609.95 958.966 1606.36 975.13 1603.77 986.365C1602.48 991.983 1601.44 996.369 1600.72 999.35C1600.36 1000.84 1600.08 1001.98 1599.9 1002.75ZM-92.2656 1004.81C-92.2295 1004.7 -92.1979 1004.61 -92.171 1004.53H812.866C813.353 1005.54 813.828 1006.55 814.291 1007.56C820.661 1021.38 824.659 1034.21 824.49 1045.7C824.32 1057.15 820.006 1067.29 809.678 1075.78C799.326 1084.3 782.908 1091.17 758.506 1095.99C709.677 1105.63 636.636 1110.07 553.362 1112.32C493.391 1113.95 428.134 1114.43 362.819 1114.92C337.446 1115.11 312.065 1115.3 286.981 1115.56C197.333 1116.48 111.483 1118.25 43.457 1123.9C9.44469 1126.72 -20.1266 1130.52 -43.4961 1135.67C-66.84 1140.82 -84.085 1147.34 -93.3604 1155.66C-97.93 1159.75 -101.912 1162.73 -105.361 1164.73C-108.815 1166.73 -111.707 1167.72 -114.103 1167.89C-116.481 1168.05 -118.38 1167.39 -119.892 1166.06C-121.418 1164.71 -122.588 1162.63 -123.421 1159.89C-125.089 1154.4 -125.355 1146.42 -124.611 1136.89C-123.867 1127.37 -122.121 1116.35 -119.799 1104.8C-115.156 1081.71 -108.221 1056.56 -102.445 1037.17C-99.5573 1027.48 -96.9599 1019.23 -95.0844 1013.41C-94.1467 1010.5 -93.3896 1008.19 -92.8669 1006.61C-92.6056 1005.83 -92.4029 1005.22 -92.2656 1004.81Z" fill="#429636" stroke="white"/>
<path opacity="0.30385" d="M90.1491 -125.473C144.868 -125.473 191.097 -111.738 227.866 -85.0241C264.635 -58.3098 291.983 -18.5877 308.892 33.4534C317.331 59.4254 314.656 76.4544 304.692 88.4664C294.687 100.529 277.244 107.655 255.83 113.568C246.008 116.28 235.377 118.731 224.279 121.289C223.293 121.516 222.304 121.744 221.312 121.973C209.145 124.781 196.465 127.755 183.736 131.367C158.278 138.591 132.593 148.377 110.355 164.533C88.1454 180.669 65.7065 203.161 43.1756 226.784C38.5623 231.621 33.9452 236.505 29.325 241.393C11.3686 260.389 -6.63388 279.433 -24.6379 295.934C-47.2778 316.683 -69.8671 333.358 -92.2959 340.842C-114.689 348.313 -136.929 346.626 -158.955 330.623C-181.016 314.595 -192.262 294.565 -196.214 271.901C-200.17 249.216 -196.821 223.868 -189.632 197.225C-182.443 170.585 -171.427 142.693 -160.082 114.926C-158.614 111.333 -157.14 107.743 -155.668 104.157C-145.773 80.0427 -135.972 56.1604 -128.594 33.4534C-111.685 -18.5877 -84.3372 -58.3098 -47.5681 -85.0241C-10.7989 -111.738 35.4298 -125.473 90.1491 -125.473Z" stroke="white"/>
<path opacity="0.30385" d="M89.7836 -124.973C144.513 -124.973 178.188 -116.416 202.425 -95.0698C226.71 -73.6809 241.692 -39.3143 258.633 12.8246C267.07 38.791 267.186 56.3767 261.477 69.205C255.771 82.0259 244.141 90.3382 228.473 97.5067C218.874 101.899 207.888 105.81 195.939 110.065C188.33 112.774 180.33 115.622 172.05 118.822C150.834 127.02 127.963 137.466 105.696 153.644C84.2718 169.21 62.5856 188.505 40.8061 207.883C39.9996 208.6 39.1931 209.318 38.3864 210.036C15.775 230.149 -6.93326 250.209 -29.6294 266.244C-52.3308 282.281 -74.9379 294.23 -97.33 298.193C-119.674 302.147 -141.857 298.161 -163.801 282.218C-185.814 266.225 -196.651 249.282 -200.118 231.297C-203.593 213.275 -199.699 194.051 -191.931 173.448C-185.246 155.717 -175.734 137.065 -165.688 117.365C-164.057 114.167 -162.413 110.942 -160.764 107.689C-148.97 84.4204 -136.978 59.7489 -128.484 33.6079C-111.601 -18.352 -84.3084 -57.9782 -47.6397 -84.6196C-10.9711 -111.261 35.1496 -124.973 89.7836 -124.973Z" fill="#429636" stroke="white" stroke-width="2"/>
<path opacity="0.30385" d="M118.947 -158C173.411 -158 226.124 -130.221 269.491 -89.3503C312.851 -48.4856 346.77 5.37856 363.652 57.3364C367.85 70.2574 368.529 80.5818 366.439 88.9086C364.356 97.2116 359.493 103.635 352.396 108.724C338.115 118.964 314.914 123.723 287.601 127.258C278.475 128.439 268.897 129.483 259.069 130.554C239.606 132.675 219.166 134.902 199.324 138.514C169.441 143.954 140.709 152.562 118.359 168.8C96.0422 185.014 72.7271 214.098 48.9677 247.46C37.6998 263.283 26.3134 280.095 14.8723 296.987L12.977 299.786C0.895111 317.622 -11.2447 335.494 -23.3827 352.357C-47.6764 386.108 -71.891 415.715 -95.512 432.873C-107.314 441.446 -118.902 446.86 -130.22 448.177C-141.506 449.49 -152.608 446.738 -163.501 438.824C-185.346 422.953 -196.314 396.348 -199.853 363.515C-203.392 330.689 -199.484 291.796 -191.735 251.587C-178.845 184.701 -155.369 114.378 -138.08 62.5885C-134.582 52.1087 -131.337 42.3878 -128.484 33.6079C-94.7244 -70.2932 9.83846 -158 118.947 -158Z" stroke="white" stroke-width="2"/>
<path fill-rule="evenodd" clip-rule="evenodd" d="M863.603 179.027C863.603 180.132 862.707 181.027 861.603 181.027C860.498 181.027 859.603 180.132 859.603 179.027C859.603 177.923 860.498 177.027 861.603 177.027C862.707 177.027 863.603 177.923 863.603 179.027ZM861.603 197.027C862.707 197.027 863.603 196.132 863.603 195.027C863.603 193.923 862.707 193.027 861.603 193.027C860.498 193.027 859.603 193.923 859.603 195.027C859.603 196.132 860.498 197.027 861.603 197.027ZM877.603 197.027C878.707 197.027 879.603 196.132 879.603 195.027C879.603 193.923 878.707 193.027 877.603 193.027C876.498 193.027 875.603 193.923 875.603 195.027C875.603 196.132 876.498 197.027 877.603 197.027ZM895.603 195.027C895.603 196.132 894.707 197.027 893.603 197.027C892.498 197.027 891.603 196.132 891.603 195.027C891.603 193.923 892.498 193.027 893.603 193.027C894.707 193.027 895.603 193.923 895.603 195.027ZM909.603 197.027C910.707 197.027 911.603 196.132 911.603 195.027C911.603 193.923 910.707 193.027 909.603 193.027C908.498 193.027 907.603 193.923 907.603 195.027C907.603 196.132 908.498 197.027 909.603 197.027ZM927.603 195.027C927.603 196.132 926.707 197.027 925.603 197.027C924.498 197.027 923.603 196.132 923.603 195.027C923.603 193.923 924.498 193.027 925.603 193.027C926.707 193.027 927.603 193.923 927.603 195.027ZM941.603 197.027C942.707 197.027 943.603 196.132 943.603 195.027C943.603 193.923 942.707 193.027 941.603 193.027C940.498 193.027 939.603 193.923 939.603 195.027C939.603 196.132 940.498 197.027 941.603 197.027ZM877.603 181.027C878.707 181.027 879.603 180.132 879.603 179.027C879.603 177.923 878.707 177.027 877.603 177.027C876.498 177.027 875.603 177.923 875.603 179.027C875.603 180.132 876.498 181.027 877.603 181.027ZM895.603 179.027C895.603 180.132 894.707 181.027 893.603 181.027C892.498 181.027 891.603 180.132 891.603 179.027C891.603 177.923 892.498 177.027 893.603 177.027C894.707 177.027 895.603 177.923 895.603 179.027ZM909.603 181.027C910.707 181.027 911.603 180.132 911.603 179.027C911.603 177.923 910.707 177.027 909.603 177.027C908.498 177.027 907.603 177.923 907.603 179.027C907.603 180.132 908.498 181.027 909.603 181.027ZM927.603 179.027C927.603 180.132 926.707 181.027 925.603 181.027C924.498 181.027 923.603 180.132 923.603 179.027C923.603 177.923 924.498 177.027 925.603 177.027C926.707 177.027 927.603 177.923 927.603 179.027ZM941.603 181.027C942.707 181.027 943.603 180.132 943.603 179.027C943.603 177.923 942.707 177.027 941.603 177.027C940.498 177.027 939.603 177.923 939.603 179.027C939.603 180.132 940.498 181.027 941.603 181.027ZM757.603 197.027C758.707 197.027 759.603 196.132 759.603 195.027C759.603 193.923 758.707 193.027 757.603 193.027C756.498 193.027 755.603 193.923 755.603 195.027C755.603 196.132 756.498 197.027 757.603 197.027ZM773.603 197.027C774.707 197.027 775.603 196.132 775.603 195.027C775.603 193.923 774.707 193.027 773.603 193.027C772.498 193.027 771.603 193.923 771.603 195.027C771.603 196.132 772.498 197.027 773.603 197.027ZM791.603 195.027C791.603 196.132 790.707 197.027 789.603 197.027C788.498 197.027 787.603 196.132 787.603 195.027C787.603 193.923 788.498 193.027 789.603 193.027C790.707 193.027 791.603 193.923 791.603 195.027ZM805.603 197.027C806.707 197.027 807.603 196.132 807.603 195.027C807.603 193.923 806.707 193.027 805.603 193.027C804.498 193.027 803.603 193.923 803.603 195.027C803.603 196.132 804.498 197.027 805.603 197.027ZM823.603 195.027C823.603 196.132 822.707 197.027 821.603 197.027C820.498 197.027 819.603 196.132 819.603 195.027C819.603 193.923 820.498 193.027 821.603 193.027C822.707 193.027 823.603 193.923 823.603 195.027ZM837.603 197.027C838.707 197.027 839.603 196.132 839.603 195.027C839.603 193.923 838.707 193.027 837.603 193.027C836.498 193.027 835.603 193.923 835.603 195.027C835.603 196.132 836.498 197.027 837.603 197.027ZM757.603 181.027C758.707 181.027 759.603 180.132 759.603 179.027C759.603 177.923 758.707 177.027 757.603 177.027C756.498 177.027 755.603 177.923 755.603 179.027C755.603 180.132 756.498 181.027 757.603 181.027ZM767.603 211.027C767.603 212.132 766.707 213.027 765.603 213.027C764.498 213.027 763.603 212.132 763.603 211.027C763.603 209.923 764.498 209.027 765.603 209.027C766.707 209.027 767.603 209.923 767.603 211.027ZM765.603 229.027C766.707 229.027 767.603 228.132 767.603 227.027C767.603 225.923 766.707 225.027 765.603 225.027C764.498 225.027 763.603 225.923 763.603 227.027C763.603 228.132 764.498 229.027 765.603 229.027ZM781.603 229.027C782.707 229.027 783.603 228.132 783.603 227.027C783.603 225.923 782.707 225.027 781.603 225.027C780.498 225.027 779.603 225.923 779.603 227.027C779.603 228.132 780.498 229.027 781.603 229.027ZM799.603 227.027C799.603 228.132 798.707 229.027 797.603 229.027C796.498 229.027 795.603 228.132 795.603 227.027C795.603 225.923 796.498 225.027 797.603 225.027C798.707 225.027 799.603 225.923 799.603 227.027ZM813.603 229.027C814.707 229.027 815.603 228.132 815.603 227.027C815.603 225.923 814.707 225.027 813.603 225.027C812.498 225.027 811.603 225.923 811.603 227.027C811.603 228.132 812.498 229.027 813.603 229.027ZM831.603 227.027C831.603 228.132 830.707 229.027 829.603 229.027C828.498 229.027 827.603 228.132 827.603 227.027C827.603 225.923 828.498 225.027 829.603 225.027C830.707 225.027 831.603 225.923 831.603 227.027ZM845.603 229.027C846.707 229.027 847.603 228.132 847.603 227.027C847.603 225.923 846.707 225.027 845.603 225.027C844.498 225.027 843.603 225.923 843.603 227.027C843.603 228.132 844.498 229.027 845.603 229.027ZM781.603 213.027C782.707 213.027 783.603 212.132 783.603 211.027C783.603 209.923 782.707 209.027 781.603 209.027C780.498 209.027 779.603 209.923 779.603 211.027C779.603 212.132 780.498 213.027 781.603 213.027ZM799.603 211.027C799.603 212.132 798.707 213.027 797.603 213.027C796.498 213.027 795.603 212.132 795.603 211.027C795.603 209.923 796.498 209.027 797.603 209.027C798.707 209.027 799.603 209.923 799.603 211.027ZM813.603 213.027C814.707 213.027 815.603 212.132 815.603 211.027C815.603 209.923 814.707 209.027 813.603 209.027C812.498 209.027 811.603 209.923 811.603 211.027C811.603 212.132 812.498 213.027 813.603 213.027ZM831.603 211.027C831.603 212.132 830.707 213.027 829.603 213.027C828.498 213.027 827.603 212.132 827.603 211.027C827.603 209.923 828.498 209.027 829.603 209.027C830.707 209.027 831.603 209.923 831.603 211.027ZM845.603 213.027C846.707 213.027 847.603 212.132 847.603 211.027C847.603 209.923 846.707 209.027 845.603 209.027C844.498 209.027 843.603 209.923 843.603 211.027C843.603 212.132 844.498 213.027 845.603 213.027ZM773.603 181.027C774.707 181.027 775.603 180.132 775.603 179.027C775.603 177.923 774.707 177.027 773.603 177.027C772.498 177.027 771.603 177.923 771.603 179.027C771.603 180.132 772.498 181.027 773.603 181.027ZM863.603 211.027C863.603 212.132 862.707 213.027 861.603 213.027C860.498 213.027 859.603 212.132 859.603 211.027C859.603 209.923 860.498 209.027 861.603 209.027C862.707 209.027 863.603 209.923 863.603 211.027ZM861.603 229.027C862.707 229.027 863.603 228.132 863.603 227.027C863.603 225.923 862.707 225.027 861.603 225.027C860.498 225.027 859.603 225.923 859.603 227.027C859.603 228.132 860.498 229.027 861.603 229.027ZM877.603 229.027C878.707 229.027 879.603 228.132 879.603 227.027C879.603 225.923 878.707 225.027 877.603 225.027C876.498 225.027 875.603 225.923 875.603 227.027C875.603 228.132 876.498 229.027 877.603 229.027ZM895.603 227.027C895.603 228.132 894.707 229.027 893.603 229.027C892.498 229.027 891.603 228.132 891.603 227.027C891.603 225.923 892.498 225.027 893.603 225.027C894.707 225.027 895.603 225.923 895.603 227.027ZM909.603 229.027C910.707 229.027 911.603 228.132 911.603 227.027C911.603 225.923 910.707 225.027 909.603 225.027C908.498 225.027 907.603 225.923 907.603 227.027C907.603 228.132 908.498 229.027 909.603 229.027ZM927.603 227.027C927.603 228.132 926.707 229.027 925.603 229.027C924.498 229.027 923.603 228.132 923.603 227.027C923.603 225.923 924.498 225.027 925.603 225.027C926.707 225.027 927.603 225.923 927.603 227.027ZM941.603 229.027C942.707 229.027 943.603 228.132 943.603 227.027C943.603 225.923 942.707 225.027 941.603 225.027C940.498 225.027 939.603 225.923 939.603 227.027C939.603 228.132 940.498 229.027 941.603 229.027ZM877.603 213.027C878.707 213.027 879.603 212.132 879.603 211.027C879.603 209.923 878.707 209.027 877.603 209.027C876.498 209.027 875.603 209.923 875.603 211.027C875.603 212.132 876.498 213.027 877.603 213.027ZM895.603 211.027C895.603 212.132 894.707 213.027 893.603 213.027C892.498 213.027 891.603 212.132 891.603 211.027C891.603 209.923 892.498 209.027 893.603 209.027C894.707 209.027 895.603 209.923 895.603 211.027ZM909.603 213.027C910.707 213.027 911.603 212.132 911.603 211.027C911.603 209.923 910.707 209.027 909.603 209.027C908.498 209.027 907.603 209.923 907.603 211.027C907.603 212.132 908.498 213.027 909.603 213.027ZM927.603 211.027C927.603 212.132 926.707 213.027 925.603 213.027C924.498 213.027 923.603 212.132 923.603 211.027C923.603 209.923 924.498 209.027 925.603 209.027C926.707 209.027 927.603 209.923 927.603 211.027ZM941.603 213.027C942.707 213.027 943.603 212.132 943.603 211.027C943.603 209.923 942.707 209.027 941.603 209.027C940.498 209.027 939.603 209.923 939.603 211.027C939.603 212.132 940.498 213.027 941.603 213.027ZM789.603 181.027C790.707 181.027 791.603 180.132 791.603 179.027C791.603 177.923 790.707 177.027 789.603 177.027C788.498 177.027 787.603 177.923 787.603 179.027C787.603 180.132 788.498 181.027 789.603 181.027ZM807.603 179.027C807.603 180.132 806.707 181.027 805.603 181.027C804.498 181.027 803.603 180.132 803.603 179.027C803.603 177.923 804.498 177.027 805.603 177.027C806.707 177.027 807.603 177.923 807.603 179.027ZM821.603 181.027C822.707 181.027 823.603 180.132 823.603 179.027C823.603 177.923 822.707 177.027 821.603 177.027C820.498 177.027 819.603 177.923 819.603 179.027C819.603 180.132 820.498 181.027 821.603 181.027ZM839.603 179.027C839.603 180.132 838.707 181.027 837.603 181.027C836.498 181.027 835.603 180.132 835.603 179.027C835.603 177.923 836.498 177.027 837.603 177.027C838.707 177.027 839.603 177.923 839.603 179.027Z" fill="white"/>
<path fill-rule="evenodd" clip-rule="evenodd" d="M863.603 243.027C863.603 244.132 862.707 245.027 861.603 245.027C860.498 245.027 859.603 244.132 859.603 243.027C859.603 241.923 860.498 241.027 861.603 241.027C862.707 241.027 863.603 241.923 863.603 243.027ZM861.603 261.027C862.707 261.027 863.603 260.132 863.603 259.027C863.603 257.923 862.707 257.027 861.603 257.027C860.498 257.027 859.603 257.923 859.603 259.027C859.603 260.132 860.498 261.027 861.603 261.027ZM877.603 261.027C878.707 261.027 879.603 260.132 879.603 259.027C879.603 257.923 878.707 257.027 877.603 257.027C876.498 257.027 875.603 257.923 875.603 259.027C875.603 260.132 876.498 261.027 877.603 261.027ZM895.603 259.027C895.603 260.132 894.707 261.027 893.603 261.027C892.498 261.027 891.603 260.132 891.603 259.027C891.603 257.923 892.498 257.027 893.603 257.027C894.707 257.027 895.603 257.923 895.603 259.027ZM909.603 261.027C910.707 261.027 911.603 260.132 911.603 259.027C911.603 257.923 910.707 257.027 909.603 257.027C908.498 257.027 907.603 257.923 907.603 259.027C907.603 260.132 908.498 261.027 909.603 261.027ZM927.603 259.027C927.603 260.132 926.707 261.027 925.603 261.027C924.498 261.027 923.603 260.132 923.603 259.027C923.603 257.923 924.498 257.027 925.603 257.027C926.707 257.027 927.603 257.923 927.603 259.027ZM941.603 261.027C942.707 261.027 943.603 260.132 943.603 259.027C943.603 257.923 942.707 257.027 941.603 257.027C940.498 257.027 939.603 257.923 939.603 259.027C939.603 260.132 940.498 261.027 941.603 261.027ZM877.603 245.027C878.707 245.027 879.603 244.132 879.603 243.027C879.603 241.923 878.707 241.027 877.603 241.027C876.498 241.027 875.603 241.923 875.603 243.027C875.603 244.132 876.498 245.027 877.603 245.027ZM895.603 243.027C895.603 244.132 894.707 245.027 893.603 245.027C892.498 245.027 891.603 244.132 891.603 243.027C891.603 241.923 892.498 241.027 893.603 241.027C894.707 241.027 895.603 241.923 895.603 243.027ZM909.603 245.027C910.707 245.027 911.603 244.132 911.603 243.027C911.603 241.923 910.707 241.027 909.603 241.027C908.498 241.027 907.603 241.923 907.603 243.027C907.603 244.132 908.498 245.027 909.603 245.027ZM927.603 243.027C927.603 244.132 926.707 245.027 925.603 245.027C924.498 245.027 923.603 244.132 923.603 243.027C923.603 241.923 924.498 241.027 925.603 241.027C926.707 241.027 927.603 241.923 927.603 243.027ZM941.603 245.027C942.707 245.027 943.603 244.132 943.603 243.027C943.603 241.923 942.707 241.027 941.603 241.027C940.498 241.027 939.603 241.923 939.603 243.027C939.603 244.132 940.498 245.027 941.603 245.027ZM757.603 261.027C758.707 261.027 759.603 260.132 759.603 259.027C759.603 257.923 758.707 257.027 757.603 257.027C756.498 257.027 755.603 257.923 755.603 259.027C755.603 260.132 756.498 261.027 757.603 261.027ZM773.603 261.027C774.707 261.027 775.603 260.132 775.603 259.027C775.603 257.923 774.707 257.027 773.603 257.027C772.498 257.027 771.603 257.923 771.603 259.027C771.603 260.132 772.498 261.027 773.603 261.027ZM791.603 259.027C791.603 260.132 790.707 261.027 789.603 261.027C788.498 261.027 787.603 260.132 787.603 259.027C787.603 257.923 788.498 257.027 789.603 257.027C790.707 257.027 791.603 257.923 791.603 259.027ZM805.603 261.027C806.707 261.027 807.603 260.132 807.603 259.027C807.603 257.923 806.707 257.027 805.603 257.027C804.498 257.027 803.603 257.923 803.603 259.027C803.603 260.132 804.498 261.027 805.603 261.027ZM823.603 259.027C823.603 260.132 822.707 261.027 821.603 261.027C820.498 261.027 819.603 260.132 819.603 259.027C819.603 257.923 820.498 257.027 821.603 257.027C822.707 257.027 823.603 257.923 823.603 259.027ZM837.603 261.027C838.707 261.027 839.603 260.132 839.603 259.027C839.603 257.923 838.707 257.027 837.603 257.027C836.498 257.027 835.603 257.923 835.603 259.027C835.603 260.132 836.498 261.027 837.603 261.027ZM757.603 245.027C758.707 245.027 759.603 244.132 759.603 243.027C759.603 241.923 758.707 241.027 757.603 241.027C756.498 241.027 755.603 241.923 755.603 243.027C755.603 244.132 756.498 245.027 757.603 245.027ZM767.603 275.027C767.603 276.132 766.707 277.027 765.603 277.027C764.498 277.027 763.603 276.132 763.603 275.027C763.603 273.923 764.498 273.027 765.603 273.027C766.707 273.027 767.603 273.923 767.603 275.027ZM765.603 293.027C766.707 293.027 767.603 292.132 767.603 291.027C767.603 289.923 766.707 289.027 765.603 289.027C764.498 289.027 763.603 289.923 763.603 291.027C763.603 292.132 764.498 293.027 765.603 293.027ZM781.603 293.027C782.707 293.027 783.603 292.132 783.603 291.027C783.603 289.923 782.707 289.027 781.603 289.027C780.498 289.027 779.603 289.923 779.603 291.027C779.603 292.132 780.498 293.027 781.603 293.027ZM799.603 291.027C799.603 292.132 798.707 293.027 797.603 293.027C796.498 293.027 795.603 292.132 795.603 291.027C795.603 289.923 796.498 289.027 797.603 289.027C798.707 289.027 799.603 289.923 799.603 291.027ZM813.603 293.027C814.707 293.027 815.603 292.132 815.603 291.027C815.603 289.923 814.707 289.027 813.603 289.027C812.498 289.027 811.603 289.923 811.603 291.027C811.603 292.132 812.498 293.027 813.603 293.027ZM831.603 291.027C831.603 292.132 830.707 293.027 829.603 293.027C828.498 293.027 827.603 292.132 827.603 291.027C827.603 289.923 828.498 289.027 829.603 289.027C830.707 289.027 831.603 289.923 831.603 291.027ZM845.603 293.027C846.707 293.027 847.603 292.132 847.603 291.027C847.603 289.923 846.707 289.027 845.603 289.027C844.498 289.027 843.603 289.923 843.603 291.027C843.603 292.132 844.498 293.027 845.603 293.027ZM781.603 277.027C782.707 277.027 783.603 276.132 783.603 275.027C783.603 273.923 782.707 273.027 781.603 273.027C780.498 273.027 779.603 273.923 779.603 275.027C779.603 276.132 780.498 277.027 781.603 277.027ZM799.603 275.027C799.603 276.132 798.707 277.027 797.603 277.027C796.498 277.027 795.603 276.132 795.603 275.027C795.603 273.923 796.498 273.027 797.603 273.027C798.707 273.027 799.603 273.923 799.603 275.027ZM813.603 277.027C814.707 277.027 815.603 276.132 815.603 275.027C815.603 273.923 814.707 273.027 813.603 273.027C812.498 273.027 811.603 273.923 811.603 275.027C811.603 276.132 812.498 277.027 813.603 277.027ZM831.603 275.027C831.603 276.132 830.707 277.027 829.603 277.027C828.498 277.027 827.603 276.132 827.603 275.027C827.603 273.923 828.498 273.027 829.603 273.027C830.707 273.027 831.603 273.923 831.603 275.027ZM845.603 277.027C846.707 277.027 847.603 276.132 847.603 275.027C847.603 273.923 846.707 273.027 845.603 273.027C844.498 273.027 843.603 273.923 843.603 275.027C843.603 276.132 844.498 277.027 845.603 277.027ZM773.603 245.027C774.707 245.027 775.603 244.132 775.603 243.027C775.603 241.923 774.707 241.027 773.603 241.027C772.498 241.027 771.603 241.923 771.603 243.027C771.603 244.132 772.498 245.027 773.603 245.027ZM863.603 275.027C863.603 276.132 862.707 277.027 861.603 277.027C860.498 277.027 859.603 276.132 859.603 275.027C859.603 273.923 860.498 273.027 861.603 273.027C862.707 273.027 863.603 273.923 863.603 275.027ZM861.603 293.027C862.707 293.027 863.603 292.132 863.603 291.027C863.603 289.923 862.707 289.027 861.603 289.027C860.498 289.027 859.603 289.923 859.603 291.027C859.603 292.132 860.498 293.027 861.603 293.027ZM877.603 293.027C878.707 293.027 879.603 292.132 879.603 291.027C879.603 289.923 878.707 289.027 877.603 289.027C876.498 289.027 875.603 289.923 875.603 291.027C875.603 292.132 876.498 293.027 877.603 293.027ZM895.603 291.027C895.603 292.132 894.707 293.027 893.603 293.027C892.498 293.027 891.603 292.132 891.603 291.027C891.603 289.923 892.498 289.027 893.603 289.027C894.707 289.027 895.603 289.923 895.603 291.027ZM909.603 293.027C910.707 293.027 911.603 292.132 911.603 291.027C911.603 289.923 910.707 289.027 909.603 289.027C908.498 289.027 907.603 289.923 907.603 291.027C907.603 292.132 908.498 293.027 909.603 293.027ZM927.603 291.027C927.603 292.132 926.707 293.027 925.603 293.027C924.498 293.027 923.603 292.132 923.603 291.027C923.603 289.923 924.498 289.027 925.603 289.027C926.707 289.027 927.603 289.923 927.603 291.027ZM941.603 293.027C942.707 293.027 943.603 292.132 943.603 291.027C943.603 289.923 942.707 289.027 941.603 289.027C940.498 289.027 939.603 289.923 939.603 291.027C939.603 292.132 940.498 293.027 941.603 293.027ZM877.603 277.027C878.707 277.027 879.603 276.132 879.603 275.027C879.603 273.923 878.707 273.027 877.603 273.027C876.498 273.027 875.603 273.923 875.603 275.027C875.603 276.132 876.498 277.027 877.603 277.027ZM895.603 275.027C895.603 276.132 894.707 277.027 893.603 277.027C892.498 277.027 891.603 276.132 891.603 275.027C891.603 273.923 892.498 273.027 893.603 273.027C894.707 273.027 895.603 273.923 895.603 275.027ZM909.603 277.027C910.707 277.027 911.603 276.132 911.603 275.027C911.603 273.923 910.707 273.027 909.603 273.027C908.498 273.027 907.603 273.923 907.603 275.027C907.603 276.132 908.498 277.027 909.603 277.027ZM927.603 275.027C927.603 276.132 926.707 277.027 925.603 277.027C924.498 277.027 923.603 276.132 923.603 275.027C923.603 273.923 924.498 273.027 925.603 273.027C926.707 273.027 927.603 273.923 927.603 275.027ZM941.603 277.027C942.707 277.027 943.603 276.132 943.603 275.027C943.603 273.923 942.707 273.027 941.603 273.027C940.498 273.027 939.603 273.923 939.603 275.027C939.603 276.132 940.498 277.027 941.603 277.027ZM789.603 245.027C790.707 245.027 791.603 244.132 791.603 243.027C791.603 241.923 790.707 241.027 789.603 241.027C788.498 241.027 787.603 241.923 787.603 243.027C787.603 244.132 788.498 245.027 789.603 245.027ZM807.603 243.027C807.603 244.132 806.707 245.027 805.603 245.027C804.498 245.027 803.603 244.132 803.603 243.027C803.603 241.923 804.498 241.027 805.603 241.027C806.707 241.027 807.603 241.923 807.603 243.027ZM821.603 245.027C822.707 245.027 823.603 244.132 823.603 243.027C823.603 241.923 822.707 241.027 821.603 241.027C820.498 241.027 819.603 241.923 819.603 243.027C819.603 244.132 820.498 245.027 821.603 245.027ZM839.603 243.027C839.603 244.132 838.707 245.027 837.603 245.027C836.498 245.027 835.603 244.132 835.603 243.027C835.603 241.923 836.498 241.027 837.603 241.027C838.707 241.027 839.603 241.923 839.603 243.027Z" fill="white"/>
</svg>
